{"accessors" : [{"bufferView" : 0, "byteOffset" : 0, "componentType" : 5126, "count" : 567, "type" : "VEC3", "max" : [46.42076110839844, 33.67861557006836, 31.600139617919922], "min" : [-45.61217498779297, -34.37407302856445, -30.055131912231445], "name" : "POSITION"}], "asset" : {"generator" : "Aspose.3D 24.6.0", "version" : "2.0"}, "buffers" : [{"uri" : "buffer.bin", "byteLength" : 6808}], "bufferViews" : [{"buffer" : 0, "byteOffset" : 0, "byteLength" : 6804, "byteStride" : 12, "target" : 34962}], "meshes" : [{"primitives" : [{"attributes" : {"POSITION" : 0}, "mode" : 0}], "name" : ""}], "nodes" : [{"mesh" : 0, "name" : ""}], "scene" : 0, "scenes" : [{"nodes" : [0]}]}