{"accessors" : [{"bufferView" : 0, "byteOffset" : 0, "componentType" : 5123, "count" : 56664, "type" : "SCALAR", "max" : [11736], "min" : [0]}, {"bufferView" : 1, "byteOffset" : 0, "componentType" : 5126, "count" : 11737, "type" : "VEC3", "max" : [0.18766699731349945, 0.6188369989395142, 0.18610399961471558], "min" : [-0.1948550045490265, 0.23631499707698822, -0.13914500176906586], "name" : "POSITION"}, {"bufferView" : 1, "byteOffset" : 12, "componentType" : 5126, "count" : 11737, "type" : "VEC2", "max" : [1.163280963897705, 0.5], "min" : [-0.16328099370002747, 0.1951509714126587], "name" : "TEXCOORD_0"}, {"bufferView" : 1, "byteOffset" : 20, "componentType" : 5126, "count" : 11737, "type" : "VEC3", "max" : [1.0000044107437134, 1.0000044107437134, 1.0000044107437134], "min" : [-1.0000044107437134, -1.0000044107437134, -0.9999682903289795], "name" : "NORMAL"}, {"bufferView" : 0, "byteOffset" : 113328, "componentType" : 5123, "count" : 5184, "type" : "SCALAR", "max" : [1559], "min" : [0]}, {"bufferView" : 2, "byteOffset" : 0, "componentType" : 5126, "count" : 1560, "type" : "VEC3", "max" : [0.20489299297332764, 0.11828699707984924, 0.16319000720977783], "min" : [-0.21322600543498993, 0.0028019999153912067, -0.17272500693798065], "name" : "POSITION"}, {"bufferView" : 2, "byteOffset" : 12, "componentType" : 5126, "count" : 1560, "type" : "VEC2", "max" : [1.0833330154418945, 1], "min" : [0.08333300054073334, 0], "name" : "TEXCOORD_0"}, {"bufferView" : 2, "byteOffset" : 20, "componentType" : 5126, "count" : 1560, "type" : "VEC3", "max" : [0.9902536273002625, 1.0000044107437134, 0.9918296337127686], "min" : [-0.9902536273002625, -1.0000044107437134, -0.9918296337127686], "name" : "NORMAL"}, {"bufferView" : 0, "byteOffset" : 123696, "componentType" : 5123, "count" : 468, "type" : "SCALAR", "max" : [161], "min" : [0]}, {"bufferView" : 3, "byteOffset" : 0, "componentType" : 5126, "count" : 162, "type" : "VEC3", "max" : [0.045903000980615616, 0.47901299595832825, -0.17592200636863708], "min" : [-0.05309100076556206, 0.3800179958343506, -0.17980000376701355], "name" : "POSITION"}, {"bufferView" : 3, "byteOffset" : 12, "componentType" : 5126, "count" : 162, "type" : "VEC2", "max" : [1, 1], "min" : [0, 0], "name" : "TEXCOORD_0"}, {"bufferView" : 3, "byteOffset" : 20, "componentType" : 5126, "count" : 162, "type" : "VEC3", "max" : [1.0000044107437134, 1.0000044107437134, 1.0000044107437134], "min" : [-1.0000044107437134, -1.0000044107437134, -1.0000044107437134], "name" : "NORMAL"}, {"bufferView" : 0, "byteOffset" : 124632, "componentType" : 5123, "count" : 17040, "type" : "SCALAR", "max" : [3706], "min" : [0]}, {"bufferView" : 4, "byteOffset" : 0, "componentType" : 5126, "count" : 3707, "type" : "VEC3", "max" : [-0.13639900088310242, 0.5608680248260498, 0.037043001502752304], "min" : [-0.19703400135040283, 0.29428398609161377, -0.04713800176978111], "name" : "POSITION"}, {"bufferView" : 4, "byteOffset" : 12, "componentType" : 5126, "count" : 3707, "type" : "VEC2", "max" : [1, 1], "min" : [-0.16328099370002747, 0.19575101137161255], "name" : "TEXCOORD_0"}, {"bufferView" : 4, "byteOffset" : 20, "componentType" : 5126, "count" : 3707, "type" : "VEC3", "max" : [1.0000044107437134, 0.9998564720153809, 1.0000044107437134], "min" : [-1.0000044107437134, -0.9998564720153809, -1.0000044107437134], "name" : "NORMAL"}, {"bufferView" : 0, "byteOffset" : 158712, "componentType" : 5123, "count" : 9684, "type" : "SCALAR", "max" : [3065], "min" : [0]}, {"bufferView" : 5, "byteOffset" : 0, "componentType" : 5126, "count" : 3066, "type" : "VEC3", "max" : [-0.16598500311374664, 0.5129410028457642, 0.026985999196767807], "min" : [-0.1998240053653717, 0.3422110080718994, -0.02490299940109253], "name" : "POSITION"}, {"bufferView" : 5, "byteOffset" : 12, "componentType" : 5126, "count" : 3066, "type" : "VEC2", "max" : [1, 1], "min" : [0, 0], "name" : "TEXCOORD_0"}, {"bufferView" : 5, "byteOffset" : 20, "componentType" : 5126, "count" : 3066, "type" : "VEC3", "max" : [1.0000044107437134, 0.9988566637039185, 1.0000044107437134], "min" : [-0.9996505379676819, -0.9988566637039185, -1.0000044107437134], "name" : "NORMAL"}, {"bufferView" : 0, "byteOffset" : 178080, "componentType" : 5123, "count" : 17520, "type" : "SCALAR", "max" : [4745], "min" : [0]}, {"bufferView" : 6, "byteOffset" : 0, "componentType" : 5126, "count" : 4746, "type" : "VEC3", "max" : [-0.16250300407409668, 0.5061969757080078, -0.03046100027859211], "min" : [-0.1934089958667755, 0.33699798583984375, -0.043859999626874924], "name" : "POSITION"}, {"bufferView" : 6, "byteOffset" : 12, "componentType" : 5126, "count" : 4746, "type" : "VEC2", "max" : [0, 1], "min" : [0, 1], "name" : "TEXCOORD_0"}, {"bufferView" : 6, "byteOffset" : 20, "componentType" : 5126, "count" : 4746, "type" : "VEC3", "max" : [0.9829962849617004, 1.0000016689300537, 0.9999179840087891], "min" : [-0.984215497970581, -1.0000039339065552, -0.9999927878379822], "name" : "NORMAL"}, {"bufferView" : 0, "byteOffset" : 213120, "componentType" : 5123, "count" : 10440, "type" : "SCALAR", "max" : [2262], "min" : [0]}, {"bufferView" : 7, "byteOffset" : 0, "componentType" : 5126, "count" : 2263, "type" : "VEC3", "max" : [-0.15490099787712097, 0.1141979992389679, -0.11466600000858307], "min" : [-0.2370160073041916, 0.0059079998172819614, -0.1963299959897995], "name" : "POSITION"}, {"bufferView" : 7, "byteOffset" : 12, "componentType" : 5126, "count" : 2263, "type" : "VEC2", "max" : [1.0166670083999634, 0], "min" : [0.016666999086737633, 0], "name" : "TEXCOORD_0"}, {"bufferView" : 7, "byteOffset" : 20, "componentType" : 5126, "count" : 2263, "type" : "VEC3", "max" : [1.0000044107437134, 1.0000044107437134, 0.9945290088653564], "min" : [-1.0000044107437134, -1.0000044107437134, -0.9945290088653564], "name" : "NORMAL"}, {"bufferView" : 0, "byteOffset" : 234000, "componentType" : 5123, "count" : 10440, "type" : "SCALAR", "max" : [2262], "min" : [0]}, {"bufferView" : 8, "byteOffset" : 0, "componentType" : 5126, "count" : 2263, "type" : "VEC3", "max" : [0.2301820069551468, 0.1141979992389679, -0.11616799980401993], "min" : [0.14806799590587616, 0.0059079998172819614, -0.19783300161361694], "name" : "POSITION"}, {"bufferView" : 8, "byteOffset" : 12, "componentType" : 5126, "count" : 2263, "type" : "VEC2", "max" : [1.0166670083999634, 0], "min" : [0.016666999086737633, 0], "name" : "TEXCOORD_0"}, {"bufferView" : 8, "byteOffset" : 20, "componentType" : 5126, "count" : 2263, "type" : "VEC3", "max" : [1.0000044107437134, 1.0000044107437134, 0.9945290088653564], "min" : [-1.0000044107437134, -1.0000044107437134, -0.9945290088653564], "name" : "NORMAL"}, {"bufferView" : 0, "byteOffset" : 254880, "componentType" : 5123, "count" : 10440, "type" : "SCALAR", "max" : [2262], "min" : [0]}, {"bufferView" : 9, "byteOffset" : 0, "componentType" : 5126, "count" : 2263, "type" : "VEC3", "max" : [0.23235400021076202, 0.1141979992389679, 0.18754999339580536], "min" : [0.1502400040626526, 0.0059079998172819614, 0.10588499903678894], "name" : "POSITION"}, {"bufferView" : 9, "byteOffset" : 12, "componentType" : 5126, "count" : 2263, "type" : "VEC2", "max" : [1.0166670083999634, 0], "min" : [0.016666999086737633, 0], "name" : "TEXCOORD_0"}, {"bufferView" : 9, "byteOffset" : 20, "componentType" : 5126, "count" : 2263, "type" : "VEC3", "max" : [1.0000044107437134, 1.0000044107437134, 0.9945290088653564], "min" : [-1.0000044107437134, -1.0000044107437134, -0.9945290088653564], "name" : "NORMAL"}, {"bufferView" : 0, "byteOffset" : 275760, "componentType" : 5123, "count" : 1728, "type" : "SCALAR", "max" : [519], "min" : [0]}, {"bufferView" : 10, "byteOffset" : 0, "componentType" : 5126, "count" : 520, "type" : "VEC3", "max" : [0.20706500113010406, 0.11828699707984924, 0.16244199872016907], "min" : [0.17552800476551056, 0.0028019999153912067, 0.13099299371242523], "name" : "POSITION"}, {"bufferView" : 10, "byteOffset" : 12, "componentType" : 5126, "count" : 520, "type" : "VEC2", "max" : [1.0833330154418945, 1], "min" : [0.08333300054073334, 0], "name" : "TEXCOORD_0"}, {"bufferView" : 10, "byteOffset" : 20, "componentType" : 5126, "count" : 520, "type" : "VEC3", "max" : [0.9902397990226746, 1.0000044107437134, 0.9918296337127686], "min" : [-0.9902397990226746, -1.0000044107437134, -0.9918296337127686], "name" : "NORMAL"}, {"bufferView" : 0, "byteOffset" : 279216, "componentType" : 5123, "count" : 10440, "type" : "SCALAR", "max" : [2262], "min" : [0]}, {"bufferView" : 11, "byteOffset" : 0, "componentType" : 5126, "count" : 2263, "type" : "VEC3", "max" : [-0.15639899671077728, 0.1141979992389679, 0.18829800188541412], "min" : [-0.2385140061378479, 0.0059079998172819614, 0.10663300007581711], "name" : "POSITION"}, {"bufferView" : 11, "byteOffset" : 12, "componentType" : 5126, "count" : 2263, "type" : "VEC2", "max" : [1.0166670083999634, 0], "min" : [0.016666999086737633, 0], "name" : "TEXCOORD_0"}, {"bufferView" : 11, "byteOffset" : 20, "componentType" : 5126, "count" : 2263, "type" : "VEC3", "max" : [1.0000044107437134, 1.0000044107437134, 0.9945290088653564], "min" : [-1.0000044107437134, -1.0000044107437134, -0.9945290088653564], "name" : "NORMAL"}, {"bufferView" : 0, "byteOffset" : 300096, "componentType" : 5123, "count" : 11496, "type" : "SCALAR", "max" : [2983], "min" : [0]}, {"bufferView" : 12, "byteOffset" : 0, "componentType" : 5126, "count" : 2984, "type" : "VEC3", "max" : [0.2705160081386566, 0.4609220027923584, 0.22732099890708923], "min" : [-0.0039079999551177025, 0.15460799634456635, -0.044950999319553375], "name" : "POSITION"}, {"bufferView" : 12, "byteOffset" : 12, "componentType" : 5126, "count" : 2984, "type" : "VEC2", "max" : [11.270105361938477, 10.980106353759766], "min" : [-9.980113983154297, -10.270105361938477], "name" : "TEXCOORD_0"}, {"bufferView" : 12, "byteOffset" : 20, "componentType" : 5126, "count" : 2984, "type" : "VEC3", "max" : [1.0000044107437134, 1.0000044107437134, 1.0000044107437134], "min" : [-1.0000044107437134, -1.0000044107437134, -1.0000044107437134], "name" : "NORMAL"}, {"bufferView" : 0, "byteOffset" : 323088, "componentType" : 5123, "count" : 1674, "type" : "SCALAR", "max" : [330], "min" : [0]}, {"bufferView" : 13, "byteOffset" : 0, "componentType" : 5126, "count" : 331, "type" : "VEC3", "max" : [0.026621999219059944, 0.4577749967575073, -0.1794389933347702], "min" : [-0.033810000866651535, 0.39737701416015625, -0.19809800386428833], "name" : "POSITION"}, {"bufferView" : 13, "byteOffset" : 12, "componentType" : 5126, "count" : 331, "type" : "VEC2", "max" : [0.9859340190887451, 0.5228320360183716], "min" : [-0.10000000149011612, 0], "name" : "TEXCOORD_0"}, {"bufferView" : 13, "byteOffset" : 20, "componentType" : 5126, "count" : 331, "type" : "VEC3", "max" : [0.9959673881530762, 0.9990317821502686, 1.0000022649765015], "min" : [-1.0000004768371582, -0.9990317821502686, -1.0000044107437134], "name" : "NORMAL"}, {"bufferView" : 0, "byteOffset" : 326436, "componentType" : 5123, "count" : 12384, "type" : "SCALAR", "max" : [2848], "min" : [0]}, {"bufferView" : 14, "byteOffset" : 0, "componentType" : 5126, "count" : 2849, "type" : "VEC3", "max" : [0.13037900626659393, 0.5615500211715698, -0.11491800099611282], "min" : [-0.13756799697875977, 0.29360300302505493, -0.18643100559711456], "name" : "POSITION"}, {"bufferView" : 14, "byteOffset" : 12, "componentType" : 5126, "count" : 2849, "type" : "VEC2", "max" : [1.1853489875793457, 0.5244350433349609], "min" : [-0.16328099370002747, 0.1951509714126587], "name" : "TEXCOORD_0"}, {"bufferView" : 14, "byteOffset" : 20, "componentType" : 5126, "count" : 2849, "type" : "VEC3", "max" : [0.9999674558639526, 0.9999674558639526, 0.9281904101371765], "min" : [-0.9999674558639526, -0.9999682903289795, -1.0000044107437134], "name" : "NORMAL"}, {"bufferView" : 0, "byteOffset" : 351204, "componentType" : 5123, "count" : 3348, "type" : "SCALAR", "max" : [1301], "min" : [0]}, {"bufferView" : 15, "byteOffset" : 0, "componentType" : 5126, "count" : 1302, "type" : "VEC3", "max" : [0.05447399988770485, 0.48564401268959045, 0.23271499574184418], "min" : [-0.06166199967265129, 0.3695079982280731, 0.17225399613380432], "name" : "POSITION"}, {"bufferView" : 15, "byteOffset" : 12, "componentType" : 5126, "count" : 1302, "type" : "VEC2", "max" : [1, 1], "min" : [0, 0.05121201276779175], "name" : "TEXCOORD_0"}, {"bufferView" : 15, "byteOffset" : 20, "componentType" : 5126, "count" : 1302, "type" : "VEC3", "max" : [1.0000044107437134, 1.0000044107437134, 0.9975617527961731], "min" : [-1.0000044107437134, -1.0000044107437134, -1.0000044107437134], "name" : "NORMAL"}, {"bufferView" : 0, "byteOffset" : 357900, "componentType" : 5123, "count" : 240, "type" : "SCALAR", "max" : [79], "min" : [0]}, {"bufferView" : 16, "byteOffset" : 0, "componentType" : 5126, "count" : 80, "type" : "VEC3", "max" : [0.03860799968242645, 0.46977800130844116, 0.1963379979133606], "min" : [-0.045795999467372894, 0.3853740096092224, 0.1892780065536499], "name" : "POSITION"}, {"bufferView" : 16, "byteOffset" : 12, "componentType" : 5126, "count" : 80, "type" : "VEC2", "max" : [0.5, 0.5130940079689026], "min" : [0, 0.4869059920310974], "name" : "TEXCOORD_0"}, {"bufferView" : 16, "byteOffset" : 20, "componentType" : 5126, "count" : 80, "type" : "VEC3", "max" : [1.0000044107437134, 1.0000044107437134, 0], "min" : [-1.0000044107437134, -1.0000044107437134, 0], "name" : "NORMAL"}, {"bufferView" : 0, "byteOffset" : 358380, "componentType" : 5123, "count" : 5748, "type" : "SCALAR", "max" : [1439], "min" : [0]}, {"bufferView" : 17, "byteOffset" : 0, "componentType" : 5126, "count" : 1440, "type" : "VEC3", "max" : [0.23728300631046295, 0.10529500246047974, 0.1935659945011139], "min" : [-0.2444709986448288, 0.08278100192546844, -0.20438900589942932], "name" : "POSITION"}, {"bufferView" : 17, "byteOffset" : 12, "componentType" : 5126, "count" : 1440, "type" : "VEC3", "max" : [0.9980930089950562, 1.0000044107437134, 0.9980930089950562], "min" : [-0.9980930089950562, -1.0000044107437134, -0.9980868101119995], "name" : "NORMAL"}, {"bufferView" : 0, "byteOffset" : 369876, "componentType" : 5123, "count" : 5748, "type" : "SCALAR", "max" : [1439], "min" : [0]}, {"bufferView" : 18, "byteOffset" : 0, "componentType" : 5126, "count" : 1440, "type" : "VEC3", "max" : [0.23728300631046295, 0.037126000970602036, 0.1935659945011139], "min" : [-0.2444709986448288, 0.014612000435590744, -0.20438900589942932], "name" : "POSITION"}, {"bufferView" : 18, "byteOffset" : 12, "componentType" : 5126, "count" : 1440, "type" : "VEC3", "max" : [0.9980930089950562, 1.0000044107437134, 0.9980930089950562], "min" : [-0.9980930089950562, -1.0000044107437134, -0.9980868101119995], "name" : "NORMAL"}, {"bufferView" : 0, "byteOffset" : 381372, "componentType" : 5123, "count" : 16818, "type" : "SCALAR", "max" : [5813], "min" : [0]}, {"bufferView" : 19, "byteOffset" : 0, "componentType" : 5126, "count" : 5814, "type" : "VEC3", "max" : [0.27711600065231323, 0.4774380028247833, 0.1434600055217743], "min" : [-0.15246500074863434, 0.10084100067615509, -0.15428300201892853], "name" : "POSITION"}, {"bufferView" : 19, "byteOffset" : 12, "componentType" : 5126, "count" : 5814, "type" : "VEC2", "max" : [1, 1], "min" : [0, 0], "name" : "TEXCOORD_0"}, {"bufferView" : 19, "byteOffset" : 20, "componentType" : 5126, "count" : 5814, "type" : "VEC3", "max" : [1.0000044107437134, 1.0000044107437134, 1.0000044107437134], "min" : [-1.0000044107437134, -1.0000044107437134, -1.0000044107437134], "name" : "NORMAL"}, {"bufferView" : 0, "byteOffset" : 415008, "componentType" : 5123, "count" : 2400, "type" : "SCALAR", "max" : [879], "min" : [0]}, {"bufferView" : 20, "byteOffset" : 0, "componentType" : 5126, "count" : 880, "type" : "VEC3", "max" : [0.23486800491809845, 0.4705680012702942, 0.04416000097990036], "min" : [-0.05345600098371506, 0.12001699954271317, -0.054983001202344894], "name" : "POSITION"}, {"bufferView" : 20, "byteOffset" : 12, "componentType" : 5126, "count" : 880, "type" : "VEC2", "max" : [1, 0.9487879872322083], "min" : [0, 0.05121201276779175], "name" : "TEXCOORD_0"}, {"bufferView" : 20, "byteOffset" : 20, "componentType" : 5126, "count" : 880, "type" : "VEC3", "max" : [1.0000044107437134, 1.0000044107437134, 1.0000044107437134], "min" : [-1.0000044107437134, -1.0000044107437134, -1.0000044107437134], "name" : "NORMAL"}, {"bufferView" : 0, "byteOffset" : 419808, "componentType" : 5123, "count" : 105504, "type" : "SCALAR", "max" : [27479], "min" : [0]}, {"bufferView" : 21, "byteOffset" : 0, "componentType" : 5126, "count" : 27480, "type" : "VEC3", "max" : [0.06221500039100647, 0.4933969974517822, -0.18678399920463562], "min" : [-0.06940300017595291, 0.36175501346588135, -0.1876779943704605], "name" : "POSITION"}, {"bufferView" : 21, "byteOffset" : 12, "componentType" : 5126, "count" : 27480, "type" : "VEC3", "max" : [1.0000044107437134, 1.0000042915344238, 1.0000044107437134], "min" : [-1.000003457069397, -1.0000044107437134, -1.0000044107437134], "name" : "NORMAL"}, {"bufferView" : 0, "byteOffset" : 630816, "componentType" : 5123, "count" : 17514, "type" : "SCALAR", "max" : [3850], "min" : [0]}, {"bufferView" : 22, "byteOffset" : 0, "componentType" : 5126, "count" : 3851, "type" : "VEC3", "max" : [0.07293500006198883, 0.5041049718856812, -0.1742829978466034], "min" : [-0.08012299984693527, 0.35104700922966003, -0.18735399842262268], "name" : "POSITION"}, {"bufferView" : 22, "byteOffset" : 12, "componentType" : 5126, "count" : 3851, "type" : "VEC2", "max" : [0.9859340190887451, 1.0010559558868408], "min" : [-0.10000000149011612, -0.0010559558868408203], "name" : "TEXCOORD_0"}, {"bufferView" : 22, "byteOffset" : 20, "componentType" : 5126, "count" : 3851, "type" : "VEC3", "max" : [1.0000044107437134, 1.0000044107437134, 1.0000042915344238], "min" : [-1.0000044107437134, -1.0000044107437134, -1.0000044107437134], "name" : "NORMAL"}], "asset" : {"generator" : "Aspose.3D 24.6.0", "version" : "2.0"}, "buffers" : [{"uri" : "buffer.bin", "byteLength" : 3079088}], "bufferViews" : [{"buffer" : 0, "byteOffset" : 0, "byteLength" : 665844, "target" : 34963}, {"buffer" : 0, "byteOffset" : 665848, "byteLength" : 375584, "byteStride" : 32, "target" : 34962}, {"buffer" : 0, "byteOffset" : 1041436, "byteLength" : 49920, "byteStride" : 32, "target" : 34962}, {"buffer" : 0, "byteOffset" : 1091360, "byteLength" : 5184, "byteStride" : 32, "target" : 34962}, {"buffer" : 0, "byteOffset" : 1096548, "byteLength" : 118624, "byteStride" : 32, "target" : 34962}, {"buffer" : 0, "byteOffset" : 1215176, "byteLength" : 98112, "byteStride" : 32, "target" : 34962}, {"buffer" : 0, "byteOffset" : 1313292, "byteLength" : 151872, "byteStride" : 32, "target" : 34962}, {"buffer" : 0, "byteOffset" : 1465168, "byteLength" : 72416, "byteStride" : 32, "target" : 34962}, {"buffer" : 0, "byteOffset" : 1537588, "byteLength" : 72416, "byteStride" : 32, "target" : 34962}, {"buffer" : 0, "byteOffset" : 1610008, "byteLength" : 72416, "byteStride" : 32, "target" : 34962}, {"buffer" : 0, "byteOffset" : 1682428, "byteLength" : 16640, "byteStride" : 32, "target" : 34962}, {"buffer" : 0, "byteOffset" : 1699072, "byteLength" : 72416, "byteStride" : 32, "target" : 34962}, {"buffer" : 0, "byteOffset" : 1771492, "byteLength" : 95488, "byteStride" : 32, "target" : 34962}, {"buffer" : 0, "byteOffset" : 1866984, "byteLength" : 10592, "byteStride" : 32, "target" : 34962}, {"buffer" : 0, "byteOffset" : 1877580, "byteLength" : 91168, "byteStride" : 32, "target" : 34962}, {"buffer" : 0, "byteOffset" : 1968752, "byteLength" : 41664, "byteStride" : 32, "target" : 34962}, {"buffer" : 0, "byteOffset" : 2010420, "byteLength" : 2560, "byteStride" : 32, "target" : 34962}, {"buffer" : 0, "byteOffset" : 2012984, "byteLength" : 34560, "byteStride" : 24, "target" : 34962}, {"buffer" : 0, "byteOffset" : 2047548, "byteLength" : 34560, "byteStride" : 24, "target" : 34962}, {"buffer" : 0, "byteOffset" : 2082112, "byteLength" : 186048, "byteStride" : 32, "target" : 34962}, {"buffer" : 0, "byteOffset" : 2268164, "byteLength" : 28160, "byteStride" : 32, "target" : 34962}, {"buffer" : 0, "byteOffset" : 2296328, "byteLength" : 659520, "byteStride" : 24, "target" : 34962}, {"buffer" : 0, "byteOffset" : 2955852, "byteLength" : 123232, "byteStride" : 32, "target" : 34962}], "meshes" : [{"primitives" : [{"attributes" : {"POSITION" : 1, "TEXCOORD_0" : 2, "NORMAL" : 3}, "indices" : 0, "mode" : 4}], "name" : ""}, {"primitives" : [{"attributes" : {"POSITION" : 5, "TEXCOORD_0" : 6, "NORMAL" : 7}, "indices" : 4, "mode" : 4}], "name" : ""}, {"primitives" : [{"attributes" : {"POSITION" : 9, "TEXCOORD_0" : 10, "NORMAL" : 11}, "indices" : 8, "mode" : 4}], "name" : ""}, {"primitives" : [{"attributes" : {"POSITION" : 13, "TEXCOORD_0" : 14, "NORMAL" : 15}, "indices" : 12, "mode" : 4}, {"attributes" : {"POSITION" : 17, "TEXCOORD_0" : 18, "NORMAL" : 19}, "indices" : 16, "mode" : 4}, {"attributes" : {"POSITION" : 21, "TEXCOORD_0" : 22, "NORMAL" : 23}, "indices" : 20, "mode" : 4}], "name" : ""}, {"primitives" : [{"attributes" : {"POSITION" : 25, "TEXCOORD_0" : 26, "NORMAL" : 27}, "indices" : 24, "mode" : 4}], "name" : ""}, {"primitives" : [{"attributes" : {"POSITION" : 29, "TEXCOORD_0" : 30, "NORMAL" : 31}, "indices" : 28, "mode" : 4}], "name" : ""}, {"primitives" : [{"attributes" : {"POSITION" : 33, "TEXCOORD_0" : 34, "NORMAL" : 35}, "indices" : 32, "mode" : 4}, {"attributes" : {"POSITION" : 37, "TEXCOORD_0" : 38, "NORMAL" : 39}, "indices" : 36, "mode" : 4}], "name" : ""}, {"primitives" : [{"attributes" : {"POSITION" : 41, "TEXCOORD_0" : 42, "NORMAL" : 43}, "indices" : 40, "mode" : 4}], "name" : ""}, {"primitives" : [{"attributes" : {"POSITION" : 45, "TEXCOORD_0" : 46, "NORMAL" : 47}, "indices" : 44, "mode" : 4}], "name" : ""}, {"primitives" : [{"attributes" : {"POSITION" : 49, "TEXCOORD_0" : 50, "NORMAL" : 51}, "indices" : 48, "mode" : 4}], "name" : ""}, {"primitives" : [{"attributes" : {"POSITION" : 53, "TEXCOORD_0" : 54, "NORMAL" : 55}, "indices" : 52, "mode" : 4}], "name" : ""}, {"primitives" : [{"attributes" : {"POSITION" : 57, "TEXCOORD_0" : 58, "NORMAL" : 59}, "indices" : 56, "mode" : 4}, {"attributes" : {"POSITION" : 61, "TEXCOORD_0" : 62, "NORMAL" : 63}, "indices" : 60, "mode" : 4}], "name" : ""}, {"primitives" : [{"attributes" : {"POSITION" : 65, "NORMAL" : 66}, "indices" : 64, "mode" : 4}], "name" : ""}, {"primitives" : [{"attributes" : {"POSITION" : 68, "NORMAL" : 69}, "indices" : 67, "mode" : 4}], "name" : ""}, {"primitives" : [{"attributes" : {"POSITION" : 71, "TEXCOORD_0" : 72, "NORMAL" : 73}, "indices" : 70, "mode" : 4}, {"attributes" : {"POSITION" : 75, "TEXCOORD_0" : 76, "NORMAL" : 77}, "indices" : 74, "mode" : 4}], "name" : ""}, {"primitives" : [{"attributes" : {"POSITION" : 79, "NORMAL" : 80}, "indices" : 78, "mode" : 4}], "name" : ""}, {"primitives" : [{"attributes" : {"POSITION" : 82, "TEXCOORD_0" : 83, "NORMAL" : 84}, "indices" : 81, "mode" : 4}], "name" : ""}], "nodes" : [{"mesh" : 0, "name" : "Box026_Mesh.024"}, {"mesh" : 1, "name" : "Cylinder001_Mesh.017"}, {"mesh" : 2, "name" : "Cylinder002_Mesh.026"}, {"mesh" : 3, "name" : "Object015_Mesh.021"}, {"mesh" : 4, "name" : "Object019_Mesh.019"}, {"mesh" : 5, "name" : "Object019.001_Mesh.031"}, {"mesh" : 6, "name" : "Object019.002_Mesh.032"}, {"mesh" : 7, "name" : "Object019.004_Mesh.034"}, {"mesh" : 8, "name" : "Object020_Mesh.020"}, {"mesh" : 9, "name" : "Object021_Mesh.025"}, {"mesh" : 10, "name" : "Object022_Mesh.027"}, {"mesh" : 11, "name" : "Object023_Mesh.028"}, {"mesh" : 12, "name" : "Rectangle001_Mesh.015"}, {"mesh" : 13, "name" : "Rectangle002_Mesh.016"}, {"mesh" : 14, "name" : "Rectangle003_Mesh.018"}, {"mesh" : 15, "name" : "Text009_Mesh.029"}, {"mesh" : 16, "name" : "Tube002_Mesh.022"}], "scene" : 0, "scenes" : [{"nodes" : [0, 1, 2, 3, 4, 5, 6, 7, 8, 9, 10, 11, 12, 13, 14, 15, 16]}]}